HIERARCHY
ROOT hip
{
  OFFSET 0 0 0
  CHANNELS 6 Xposition Yposition Zposition Zrotation Yrotation Xrotation
  JOINT abdomen
  {
    OFFSET 0 20.6881 -0.73152
    CHANNELS 3 Zrotation Xrotation Yrotation
    JOINT chest
    {
      OFFSET 0 11.7043 -0.48768
      CHANNELS 3 Zrotation Xrotation Yrotation
      JOINT neck
      {
        OFFSET 0 22.1894 -2.19456
        CHANNELS 3 Zrotation Xrotation Yrotation
        JOINT head
        {
          OFFSET -0.24384 7.07133 1.2192
          CHANNELS 3 Zrotation Xrotation Yrotation
          JOINT leftEye
          {
            OFFSET 4.14528 8.04674 8.04672
            CHANNELS 3 Zrotation Xrotation Yrotation
            End Site
            {
              OFFSET 1 0 0
            }
          }
          JOINT rightEye
          {
            OFFSET -3.6576 8.04674 8.04672
            CHANNELS 3 Zrotation Xrotation Yrotation
            End Site
            {
              OFFSET 1 0 0
            }
          }
        }
      }
      JOINT rCollar
      {
        OFFSET -2.68224 19.2634 -4.8768
        CHANNELS 3 Zrotation Xrotation Yrotation
        JOINT rShldr
        {
          OFFSET -8.77824 -1.95073 1.46304
          CHANNELS 3 Zrotation Xrotation Yrotation
          JOINT rForeArm
          {
            OFFSET -28.1742 -1.7115 0.48768
            CHANNELS 3 Zrotation Xrotation Yrotation
            JOINT rHand
            {
              OFFSET -22.5879 0.773209 7.07136
              CHANNELS 3 Zrotation Xrotation Yrotation
              JOINT rThumb1
              {
                OFFSET -1.2192 -0.487915 3.41376
                CHANNELS 3 Zrotation Xrotation Yrotation
                JOINT rThumb2
                {
                  OFFSET -3.37035 -0.52449 3.41376
                  CHANNELS 3 Zrotation Xrotation Yrotation
                  End Site
                  {
                    OFFSET -1.78271 -1.18214 1.43049
                  }
                }
              }
              JOINT rIndex1
              {
                OFFSET -7.75947 0.938293 5.60832
                CHANNELS 3 Zrotation Xrotation Yrotation
                JOINT rIndex2
                {
                  OFFSET -2.54057 -0.884171 1.56538
                  CHANNELS 3 Zrotation Xrotation Yrotation
                  End Site
                  {
                    OFFSET -1.62519 -0.234802 1.16502
                  }
                }
              }
              JOINT rMid1
              {
                OFFSET -8.24714 1.18213 3.41376
                CHANNELS 3 Zrotation Xrotation Yrotation
                JOINT rMid2
                {
                  OFFSET -3.10165 -0.590103 1.0647
                  CHANNELS 3 Zrotation Xrotation Yrotation
                  End Site
                  {
                    OFFSET -2.48547 -0.328903 0.83742
                  }
                }
              }
              JOINT rRing1
              {
                OFFSET -8.82822 0.546677 1.51678
                CHANNELS 3 Zrotation Xrotation Yrotation
                JOINT rRing2
                {
                  OFFSET -2.60934 -0.819778 -0.0198488
                  CHANNELS 3 Zrotation Xrotation Yrotation
                  End Site
                  {
                    OFFSET -2.33842 -0.294052 0.168128
                  }
                }
              }
              JOINT rPinky1
              {
                OFFSET -8.27202 -0.0477905 -0.4584
                CHANNELS 3 Zrotation Xrotation Yrotation
                JOINT rPinky2
                {
                  OFFSET -1.82734 -0.647385 -0.700984
                  CHANNELS 3 Zrotation Xrotation Yrotation
                  End Site
                  {
                    OFFSET -1.69225 -0.51767 -0.607171
                  }
                }
              }
            }
          }
        }
      }
      JOINT lCollar
      {
        OFFSET 2.68224 19.2634 -4.8768
        CHANNELS 3 Zrotation Xrotation Yrotation
        JOINT lShldr
        {
          OFFSET 8.77824 -1.95073 1.46304
          CHANNELS 3 Zrotation Xrotation Yrotation
          JOINT lForeArm
          {
            OFFSET 28.1742 -1.7115 0.48768
            CHANNELS 3 Zrotation Xrotation Yrotation
            JOINT lHand
            {
              OFFSET 22.5879 0.773209 7.07136
              CHANNELS 3 Zrotation Xrotation Yrotation
              JOINT lThumb1
              {
                OFFSET 1.2192 -0.487915 3.41376
                CHANNELS 3 Zrotation Xrotation Yrotation
                JOINT lThumb2
                {
                  OFFSET 3.37035 -0.52449 3.41376
                  CHANNELS 3 Zrotation Xrotation Yrotation
                  End Site
                  {
                    OFFSET 1.78271 -1.18214 1.43049
                  }
                }
              }
              JOINT lIndex1
              {
                OFFSET 7.75947 0.938293 5.60832
                CHANNELS 3 Zrotation Xrotation Yrotation
                JOINT lIndex2
                {
                  OFFSET 2.54057 -0.884171 1.56538
                  CHANNELS 3 Zrotation Xrotation Yrotation
                  End Site
                  {
                    OFFSET 1.62519 -0.234802 1.16502
                  }
                }
              }
              JOINT lMid1
              {
                OFFSET 8.24714 1.18213 3.41376
                CHANNELS 3 Zrotation Xrotation Yrotation
                JOINT lMid2
                {
                  OFFSET 3.10165 -0.590103 1.0647
                  CHANNELS 3 Zrotation Xrotation Yrotation
                  End Site
                  {
                    OFFSET 2.48547 -0.328903 0.83742
                  }
                }
              }
              JOINT lRing1
              {
                OFFSET 8.82822 0.546677 1.51678
                CHANNELS 3 Zrotation Xrotation Yrotation
                JOINT lRing2
                {
                  OFFSET 2.60934 -0.819778 -0.0198488
                  CHANNELS 3 Zrotation Xrotation Yrotation
                  End Site
                  {
                    OFFSET 2.33842 -0.294052 0.168128
                  }
                }
              }
              JOINT lPinky1
              {
                OFFSET 8.27202 -0.0477905 -0.4584
                CHANNELS 3 Zrotation Xrotation Yrotation
                JOINT lPinky2
                {
                  OFFSET 1.82734 -0.647385 -0.700984
                  CHANNELS 3 Zrotation Xrotation Yrotation
                  End Site
                  {
                    OFFSET 1.69225 -0.51767 -0.607171
                  }
                }
              }
            }
          }
        }
      }
    }
  }
  JOINT rButtock
  {
    OFFSET -8.77824 4.35084 1.2192
    CHANNELS 3 Zrotation Xrotation Yrotation
    JOINT rThigh
    {
      OFFSET 0 -1.70687 -2.19456
      CHANNELS 3 Zrotation Xrotation Yrotation
      JOINT rShin
      {
        OFFSET 0 -36.8199 0.73152
        CHANNELS 3 Zrotation Xrotation Yrotation
        JOINT rFoot
        {
          OFFSET 0.73152 -45.1104 -5.12064
          CHANNELS 3 Zrotation Xrotation Yrotation
          End Site
          {
            OFFSET -1.1221 -3.69964 12.103
          }
        }
      }
    }
  }
  JOINT lButtock
  {
    OFFSET 8.77824 4.35084 1.2192
    CHANNELS 3 Zrotation Xrotation Yrotation
    JOINT lThigh
    {
      OFFSET 0 -1.70687 -2.19456
      CHANNELS 3 Zrotation Xrotation Yrotation
      JOINT lShin
      {
        OFFSET 0 -36.8199 0.73152
        CHANNELS 3 Zrotation Xrotation Yrotation
        JOINT lFoot
        {
          OFFSET -0.73152 -45.1104 -5.12064
          CHANNELS 3 Zrotation Xrotation Yrotation
          End Site
          {
            OFFSET 1.1221 -3.69964 12.103
          }
        }
      }
    }
  }
}
MOTION
Frames:	4
Frame Time:	0.00833333
4.71886 85.3572 211.116 0.0 0.0 0.0 1.31604 -0.00470379 0.0362375 0.363461 -0.00359453 0.0629622 -1.1068e-14 -7.95139e-16 -7.45442e-17 -3.31505e-14 3.18055e-15 -1.52195e-16 -0.0 0.0 0.0 -0.0 0.0 0.0 -5.41844e-15 -9.12391e-18 1.98785e-16 -1.14168e-13 1.36664e-16 -5.96354e-16 -1.99953e-12 5.92378e-13 -2.22639e-14 -2.28438e-11 -6.24184e-13 -2.3218e-13 -5.38899e-11 -7.56282e-14 -5.05708e-13 -9.30762e-11 -1.36764e-13 -8.64316e-13 -5.3885e-11 -7.23576e-14 -5.1843e-13 7.73091 5.47488 0.417314 -5.38909e-11 -7.59357e-14 -4.96167e-13 2.90554 0.965183 0.102902 -5.38778e-11 -7.51406e-14 -5.00937e-13 10.2786 0.731801 0.0259123 -5.38975e-11 -7.39479e-14 -4.92986e-13 2.22167 -0.733487 -0.20892 -5.61448e-15 -8.3474e-18 -2.48481e-16 -1.17285e-13 2.17421e-16 -2.38542e-15 -1.99068e-12 -6.02516e-13 1.59028e-14 -2.28267e-11 5.74115e-13 -2.25819e-13 -5.38323e-11 -6.97071e-14 -4.89805e-13 -9.29501e-11 -1.24042e-13 -8.50003e-13 -5.38376e-11 -6.99722e-14 -4.80264e-13 -7.73091 5.47488 -0.417314 -5.38315e-11 -7.00716e-14 -4.96167e-13 -2.90554 0.965183 -0.102902 -5.38385e-11 -6.91771e-14 -4.90601e-13 -10.2786 0.731801 -0.0259123 -5.38333e-11 -6.83819e-14 -4.99347e-13 -2.22167 -0.733487 0.20892 -2.03217e-16 0.0 -3.88251e-19 1.46234 -6.13861 -0.134747 0.00180576 5.56146 0.0541853 -0.478043 0.575034 0.0659554 2.03217e-16 0.0 3.88251e-19 0.544823 -1.92085 0.0080032 0.00890945 -2.07861 0.0733757 0.45273 3.99724 -0.131524
7.54551 83.4856 198.966 -175.641 2.74 -173.963 1.24845 -1.31855 3.25181 -0.103127 0.739941 0.970152 -0.29256 -4.8311 -0.231764 1.05777 11.1797 -2.36638 -0.0 0.0 0.0 -0.0 0.0 0.0 5.33523e-14 -5.90408e-14 3.43692e-14 22.0402 14.9641 -1.42438 -19.9016 -17.6426 15.1699 0.0145265 2.68134 0.375363 1.76941e-10 1.6495e-09 -3.55992e-10 3.02962e-10 2.85554e-09 -6.18085e-10 1.76945e-10 1.64951e-09 -3.56003e-10 7.73091 5.47488 0.417314 1.7694e-10 1.6495e-09 -3.55983e-10 2.90554 0.965183 0.102902 1.76951e-10 1.64951e-09 -3.55989e-10 10.2786 0.731801 0.0259123 1.76935e-10 1.64951e-09 -3.5598e-10 2.22167 -0.733487 -0.20892 5.32269e-14 -5.90375e-14 3.40353e-14 -17.9311 15.6871 8.22446 19.9941 -17.7411 -15.1653 -0.0476038 4.8435 -0.671958 9.92689e-11 -1.69748e-10 -1.75666e-10 1.68905e-10 -3.01966e-10 -3.05521e-10 9.92632e-11 -1.69743e-10 -1.75656e-10 -7.73091 5.47488 -0.417314 9.92687e-11 -1.69744e-10 -1.7567e-10 -2.90554 0.965183 -0.102902 9.92635e-11 -1.69748e-10 -1.75665e-10 -10.2786 0.731801 -0.0259123 9.92692e-11 -1.69746e-10 -1.75672e-10 -2.22167 -0.733487 0.20892 -2.03217e-16 0.0 -3.88251e-19 2.71413 -4.52508 -0.995269 -0.0262839 16.5033 0.195797 -0.319466 7.83933 -4.59525 2.03217e-16 0.0 3.88251e-19 1.83505 -11.7076 -0.104054 0.032771 7.62259 -0.0181679 0.32725 8.37397 1.9009
7.41984 82.9045 197.32 -175.57 2.7053 -174.531 1.38206 -2.7344 6.68376 -0.627318 1.5233 1.93734 -0.653761 -9.93934 -0.490335 3.25718 22.9576 -5.2035 -0.0 0.0 0.0 -0.0 0.0 0.0 1.17836e-13 -1.24893e-13 7.33298e-14 46.2398 30.7946 -3.26821 -29.8178 -32.0143 35.7586 -0.00846407 5.4926 0.771711 4.45918e-10 3.52955e-09 -7.62212e-10 7.64507e-10 6.11042e-09 -1.32341e-09 4.45921e-10 3.52955e-09 -7.62221e-10 7.73091 5.47488 0.417314 4.45917e-10 3.52955e-09 -7.62204e-10 2.90554 0.965183 0.102902 4.45926e-10 3.52955e-09 -7.6221e-10 10.2786 0.731801 0.0259123 4.45913e-10 3.52955e-09 -7.62201e-10 2.22167 -0.733487 -0.20892 1.17787e-13 -1.24887e-13 7.31186e-14 -42.4355 31.1607 19.1915 29.9146 -32.1673 -35.7951 0.0272747 9.95281 -1.39724 2.65086e-10 -3.48759e-10 -3.64606e-10 4.52474e-10 -6.2065e-10 -6.34118e-10 2.6508e-10 -3.48749e-10 -3.64597e-10 -7.73091 5.47488 -0.417314 2.65085e-10 -3.48752e-10 -3.64607e-10 -2.90554 0.965183 -0.102902 2.65081e-10 -3.4876e-10 -3.64604e-10 -10.2786 0.731801 -0.0259123 2.65088e-10 -3.48756e-10 -3.64609e-10 -2.22167 -0.733487 0.20892 -2.03217e-16 0.0 -3.88251e-19 4.15029 -2.7657 -1.88142 -0.120167 27.8899 0.370557 1.18184 15.4083 -9.77173 2.03217e-16 0.0 3.88251e-19 3.21814 -22.0981 -0.215584 0.0911841 17.7962 -0.120945 -0.142677 13.0599 3.99804
7.28693 82.3517 195.764 -175.658 2.6216 -175.119 1.55422 -3.89624 9.70301 -1.10695 2.2247 2.78639 -0.998208 -14.4923 -0.715592 6.39617 33.2869 -8.34016 -0.0 0.0 0.0 -0.0 0.0 0.0 1.70894e-13 -1.77104e-13 1.0271e-13 69.121 44.7575 -5.81858 -29.685 -36.4312 58.511 -0.0627025 8.04263 1.13603 6.38604e-10 4.94866e-09 -1.06697e-09 1.09504e-09 8.5669e-09 -1.85253e-09 6.38605e-10 4.94866e-09 -1.06697e-09 7.73091 5.47488 0.417314 6.38603e-10 4.94866e-09 -1.06696e-09 2.90554 0.965183 0.102902 6.3861e-10 4.94867e-09 -1.06696e-09 10.2786 0.731801 0.0259123 6.38599e-10 4.94866e-09 -1.06696e-09 2.22167 -0.733487 -0.20892 1.7091e-13 -1.77096e-13 1.02603e-13 -70.8236 42.4641 33.0871 29.7315 -36.6153 -58.6693 0.207508 14.5224 -2.075 4.05471e-10 -5.09103e-10 -5.26017e-10 6.92614e-10 -9.05649e-10 -9.14864e-10 4.05465e-10 -5.09089e-10 -5.26008e-10 -7.73091 5.47488 -0.417314 4.05469e-10 -5.09093e-10 -5.26016e-10 -2.90554 0.965183 -0.102902 4.05467e-10 -5.09105e-10 -5.26013e-10 -10.2786 0.731801 -0.0259123 4.05474e-10 -5.091e-10 -5.26017e-10 -2.22167 -0.733487 0.20892 -2.03217e-16 0.0 -3.88251e-19 5.36305 -1.29856 -2.70925 -0.286822 38.3857 0.580897 3.73443 21.7625 -14.8702 2.03217e-16 0.0 3.88251e-19 4.28397 -31.2807 -0.376379 0.180947 27.0248 -0.225275 -0.891768 17.0473 6.17667
